# Blender v2.78 (sub 0) OBJ File: ''
# www.blender.org
mtllib blocks.mtl
o Cube.002
v -1.446150 1.954396 0.122808
v -1.446150 3.954396 0.122808
v -1.446150 1.954396 -1.877192
v -1.446150 3.954396 -1.877192
v 0.553850 1.954396 0.122808
v 0.553850 3.954396 0.122808
v 0.553850 1.954396 -1.877192
v 0.553850 3.954396 -1.877192
vn -1.0000 0.0000 0.0000
vn 0.0000 0.0000 -1.0000
vn 1.0000 0.0000 0.0000
vn 0.0000 0.0000 1.0000
vn 0.0000 -1.0000 0.0000
vn 0.0000 1.0000 0.0000
usemtl None
s off
f 1//1 2//1 4//1 3//1
f 3//2 4//2 8//2 7//2
f 7//3 8//3 6//3 5//3
f 5//4 6//4 2//4 1//4
f 3//5 7//5 5//5 1//5
f 8//6 4//6 2//6 6//6
o Cube.001
v -1.446150 -0.174025 -1.184670
v -1.446150 1.825975 -1.184670
v -1.446150 -0.174025 -3.184670
v -1.446150 1.825975 -3.184670
v 0.553850 -0.174025 -1.184670
v 0.553850 1.825975 -1.184670
v 0.553850 -0.174025 -3.184670
v 0.553850 1.825975 -3.184670
vn -1.0000 0.0000 0.0000
vn 0.0000 0.0000 -1.0000
vn 1.0000 0.0000 0.0000
vn 0.0000 0.0000 1.0000
vn 0.0000 -1.0000 0.0000
vn 0.0000 1.0000 0.0000
usemtl None
s off
f 9//7 10//7 12//7 11//7
f 11//8 12//8 16//8 15//8
f 15//9 16//9 14//9 13//9
f 13//10 14//10 10//10 9//10
f 11//11 15//11 13//11 9//11
f 16//12 12//12 10//12 14//12
o Cube
v 1.000000 -1.000000 -0.877188
v 1.000000 -1.000000 1.122812
v -1.000000 -1.000000 1.122812
v -1.000000 -1.000000 -0.877188
v 1.000000 1.000000 -0.877187
v 0.999999 1.000000 1.122813
v -1.000000 1.000000 1.122812
v -1.000000 1.000000 -0.877188
vn 0.0000 -1.0000 0.0000
vn 0.0000 1.0000 0.0000
vn 1.0000 0.0000 0.0000
vn -0.0000 -0.0000 1.0000
vn -1.0000 -0.0000 -0.0000
vn 0.0000 0.0000 -1.0000
usemtl Material
s off
f 17//13 18//13 19//13 20//13
f 21//14 24//14 23//14 22//14
f 17//15 21//15 22//15 18//15
f 18//16 22//16 23//16 19//16
f 19//17 23//17 24//17 20//17
f 21//18 17//18 20//18 24//18
